<svg version="1.1" width="126.8" height="126.8" viewBox="0 0 126.8 126.8" xmlns="http://www.w3.org/2000/svg" xmlns:xlink="http://www.w3.org/1999/xlink" overflow="hidden"><defs></defs><g><linearGradient x1="1" y1="63.5074" x2="125.813" y2="63.5074" gradientUnits="userSpaceOnUse" id="SVGID_1_"><stop offset="0" stop-color="#FFFFFF"/><stop offset="0.7078" stop-color="#F7F7F7"/><stop offset="1" stop-color="#F2F2F2"/></linearGradient><path d=" M 85.8 125.8 L 41 125.8 C 19 125.8 1 107.8 1 85.8 L 1 41.2 C 1 19.2 19 1.2 41 1.2 L 85.8 1.2 C 107.8 1.2 125.8 19.2 125.8 41.2 L 125.8 85.9 C 125.8 107.8 107.8 125.8 85.8 125.8 Z" stroke="#999999" stroke-width="2" stroke-linecap="butt" stroke-linejoin="round" stroke-miterlimit="22.9256" stroke-opacity="1" fill="url(#SVGID_1_)"/><path d=" M 61.1 1.2 C 51.8 6 42.6 10.7 33.4 15.5 C 33.4 21.3 33.4 27.1 33.4 32.8 C 32.2 43 31 53.2 29.7 63.5 C 31 73.4 32.4 83.3 33.7 93.2 C 33.7 99.4 33.7 106.8 33.7 113 C 41.9 117.6 50.1 120.9 58.4 125.5 C 61.7 125.5 65.1 125.5 68.4 125.5 C 76.8 121.2 85.3 117.6 93.7 113.3 C 93.7 106.8 93.7 99.7 93.7 93.3 C 95 83.4 96.2 73.5 97.5 63.6 C 95.9 53.7 94.3 43.8 92.7 34 C 92.7 27.6 92.7 21.2 92.7 14.9 C 84.3 10.2 75.9 5.6 67.6 1 C 65.4 1.1 63.2 1.1 61.1 1.2 Z" stroke="#999999" stroke-width="2" stroke-linecap="butt" stroke-miterlimit="10" stroke-opacity="1" fill="none"/><path d=" M 125.7 61.7 C 120.9 52.5 117.6 43.3 112.8 34 C 107 34 99.8 34 94 34 C 83.8 32.8 73.6 31.6 63.3 30.3 C 53.4 31.6 43.5 33 33.6 34.3 C 27.4 34.3 20.1 34.3 13.9 34.3 C 9.3 42.5 5.9 50.7 1.3 59 C 1.3 62.3 1.3 65.7 1.3 69 C 5.6 77.4 8.8 85.6 13.1 94.1 C 19.6 94.1 27.1 94.3 33.6 94.3 C 43.5 95.6 53.4 96.8 63.3 98.1 C 73.2 96.5 83.1 94.9 92.9 93.3 C 99.3 93.3 106.1 93.3 112.5 93.3 C 117.1 84.9 121.2 76.5 125.8 68.2 C 125.8 66.1 125.7 63.9 125.7 61.7 Z" stroke="#999999" stroke-width="2" stroke-linecap="butt" stroke-miterlimit="10" stroke-opacity="1" fill="none"/><path d=" M 13.5 14.3 C 20.4 14.3 26.5 14.6 33.4 14.6 C 43.6 19.9 53.7 25.3 63.9 30.6 C 73.6 25.3 83.3 19.9 93.1 14.6 C 99.8 14.6 106.4 14.6 113.1 14.6 C 113.1 21.1 113.1 27.5 113.1 34 C 108 43.8 102.9 53.7 97.8 63.5 C 102.8 73.9 107.8 84.3 112.8 94.7 C 112.8 101 112.8 107.4 112.8 113.7 C 106.3 113.7 99.9 113.7 93.4 113.7 C 83.4 108.2 73.9 103.7 63.3 98.3 C 52.8 103.2 43.4 107.8 33.5 113 C 26.7 113 19.9 113 13.2 113 C 13.2 106.5 13.2 100.1 13.2 93.6 C 18.8 83.7 24.3 73.7 29.9 63.8 C 24.4 54 19.4 44.8 13.9 35.1 C 13.5 28.3 13.7 20.9 13.5 14.3 Z" stroke="#999999" stroke-width="2" stroke-linecap="butt" stroke-miterlimit="10" stroke-opacity="1" fill="none"/></g></svg>