<svg version="1.1" width="154.7" height="185.3" viewBox="0 0 154.7 185.3" xmlns="http://www.w3.org/2000/svg" xmlns:xlink="http://www.w3.org/1999/xlink" overflow="hidden"><defs></defs><linearGradient x1="1" y1="92.1667" x2="153.667" y2="92.1667" gradientUnits="userSpaceOnUse" id="SVGID_1_"><stop offset="0" stop-color="#FFFFFF"/><stop offset="0.7078" stop-color="#F7F7F7"/><stop offset="1" stop-color="#F2F2F2"/></linearGradient><path d=" M 94 183.3 L 60.7 183.3 C 27.7 183.3 1 156.6 1 123.6 L 1 60.6 C 1 27.7 27.7 1 60.7 1 L 94 1 C 127 1 153.7 27.7 153.7 60.7 L 153.7 123.7 C 153.7 156.6 127 183.3 94 183.3 Z" stroke="#999999" stroke-width="3.16327" stroke-linecap="round" stroke-linejoin="round" stroke-miterlimit="22.9256" stroke-dasharray="" stroke-dashoffset="1" stroke-opacity="1" fill="url(#SVGID_1_)" fill-rule="evenodd" clip-rule="evenodd"/><line x1="76" y1="1.7" x2="76" y2="184.3" stroke="#999999" stroke-width="3.16327" stroke-linecap="round" stroke-linejoin="round" stroke-miterlimit="22.9256" stroke-dasharray="" stroke-dashoffset="1" stroke-opacity="1" fill="none" fill-rule="evenodd" clip-rule="evenodd"/><line x1="151.7" y1="93" x2="1.3" y2="93" stroke="#999999" stroke-width="3.16327" stroke-linecap="round" stroke-linejoin="round" stroke-miterlimit="22.9256" stroke-dasharray="" stroke-dashoffset="1" stroke-opacity="1" fill="none" fill-rule="evenodd" clip-rule="evenodd"/><path d=" M 16.3 22.3 L 52.3 93 L 16.3 161.3 L 76 122.3 L 137.3 161.3 L 102 93 L 137.3 22.3 L 76 62.3 Z" stroke="#999999" stroke-width="3.16327" stroke-linecap="round" stroke-linejoin="round" stroke-miterlimit="22.9256" stroke-dasharray="" stroke-dashoffset="1" stroke-opacity="1" fill="none" fill-rule="evenodd" clip-rule="evenodd"/><path d=" M 111.3 5.7 L 76 62.3 L 41.7 5.7" stroke="#999999" stroke-width="3.16327" stroke-linecap="round" stroke-linejoin="round" stroke-miterlimit="22.9256" stroke-dasharray="" stroke-dashoffset="1" stroke-opacity="1" fill="none" fill-rule="evenodd" clip-rule="evenodd"/><path d=" M 153.2 53.1 L 102 93 L 153.2 131.5" stroke="#999999" stroke-width="3.16327" stroke-linecap="round" stroke-linejoin="round" stroke-miterlimit="22.9256" stroke-dasharray="" stroke-dashoffset="1" stroke-opacity="1" fill="none" fill-rule="evenodd" clip-rule="evenodd"/><path d=" M 111.3 178.7 L 76 122.3 L 41.7 178.7" stroke="#999999" stroke-width="3.16327" stroke-linecap="round" stroke-linejoin="round" stroke-miterlimit="22.9256" stroke-dasharray="" stroke-dashoffset="1" stroke-opacity="1" fill="none" fill-rule="evenodd" clip-rule="evenodd"/><path d=" M 1 130.5 L 52.3 93 L 1.3 54.3" stroke="#999999" stroke-width="3.16327" stroke-linecap="round" stroke-linejoin="round" stroke-miterlimit="22.9256" stroke-dasharray="" stroke-dashoffset="1" stroke-opacity="1" fill="none" fill-rule="evenodd" clip-rule="evenodd"/></svg>